<mxfile host="" modified="2020-08-30T15:18:11.942Z" agent="5.0 (Macintosh; Intel Mac OS X 10_15_2) AppleWebKit/537.36 (KHTML, like Gecko) Code/1.46.1 Chrome/78.0.3904.130 Electron/7.3.1 Safari/537.36" etag="p9-twYWhaDPMu1cp4AaA" version="13.1.3">
    <diagram id="6hGFLwfOUW9BJ-s0fimq" name="Page-1">
        <mxGraphModel dx="898" dy="299" grid="1" gridSize="10" guides="1" tooltips="1" connect="1" arrows="1" fold="1" page="1" pageScale="1" pageWidth="827" pageHeight="1169" math="0" shadow="0">
            <root>
                <mxCell id="0"/>
                <mxCell id="1" parent="0"/>
                <mxCell id="5" value="raw object" style="rounded=1;whiteSpace=wrap;html=1;" vertex="1" parent="1">
                    <mxGeometry x="40" y="160" width="80" height="80" as="geometry"/>
                </mxCell>
                <mxCell id="8" value="&lt;p style=&quot;line-height: 150%&quot;&gt;{&lt;br&gt;&amp;nbsp; &amp;nbsp; field_1: &quot;...&quot;,&amp;nbsp;&lt;br&gt;&amp;nbsp; &amp;nbsp; field_2: 20,&amp;nbsp;&lt;br&gt;&amp;nbsp; &amp;nbsp; field_3: [...],&amp;nbsp;&lt;br&gt;&amp;nbsp; &amp;nbsp; field_4: &quot;...&quot;,&amp;nbsp;&lt;br&gt;}&lt;/p&gt;" style="text;html=1;align=left;verticalAlign=middle;resizable=0;points=[];autosize=1;strokeColor=none;" vertex="1" parent="1">
                    <mxGeometry x="55" y="296" width="100" height="140" as="geometry"/>
                </mxCell>
                <mxCell id="9" value="" style="endArrow=classic;startArrow=classic;html=1;" edge="1" parent="1">
                    <mxGeometry width="50" height="50" relative="1" as="geometry">
                        <mxPoint x="100" y="300" as="sourcePoint"/>
                        <mxPoint x="100" y="250" as="targetPoint"/>
                    </mxGeometry>
                </mxCell>
                <mxCell id="10" value="" style="endArrow=classic;html=1;verticalAlign=middle;" edge="1" parent="1">
                    <mxGeometry width="50" height="50" relative="1" as="geometry">
                        <mxPoint x="130" y="79.5" as="sourcePoint"/>
                        <mxPoint x="270" y="120" as="targetPoint"/>
                        <Array as="points">
                            <mxPoint x="270" y="80"/>
                        </Array>
                    </mxGeometry>
                </mxCell>
                <mxCell id="18" value="&lt;span style=&quot;font-style: normal&quot;&gt;Tunnel Cast&lt;/span&gt;" style="text;html=1;align=center;verticalAlign=middle;resizable=0;points=[];autosize=1;strokeWidth=1;fontSize=15;fontStyle=2" vertex="1" parent="1">
                    <mxGeometry x="470" y="30" width="100" height="20" as="geometry"/>
                </mxCell>
                <mxCell id="20" value="Model Class" style="whiteSpace=wrap;html=1;aspect=fixed;strokeColor=#FFFFFF;" vertex="1" parent="1">
                    <mxGeometry x="40" y="40" width="80" height="80" as="geometry"/>
                </mxCell>
                <mxCell id="21" value="" style="endArrow=classic;html=1;" edge="1" parent="1">
                    <mxGeometry width="50" height="50" relative="1" as="geometry">
                        <mxPoint x="130" y="199.5" as="sourcePoint"/>
                        <mxPoint x="230" y="160" as="targetPoint"/>
                        <Array as="points">
                            <mxPoint x="230" y="200"/>
                        </Array>
                    </mxGeometry>
                </mxCell>
                <mxCell id="23" value="&lt;font style=&quot;font-size: 14px&quot;&gt;cast(object, Model)&lt;/font&gt;" style="text;html=1;align=center;verticalAlign=middle;resizable=0;points=[];autosize=1;" vertex="1" parent="1">
                    <mxGeometry x="170" y="129" width="130" height="20" as="geometry"/>
                </mxCell>
                <mxCell id="25" value="" style="endArrow=classic;html=1;" edge="1" parent="1">
                    <mxGeometry width="50" height="50" relative="1" as="geometry">
                        <mxPoint x="301" y="141" as="sourcePoint"/>
                        <mxPoint x="351" y="141" as="targetPoint"/>
                    </mxGeometry>
                </mxCell>
                <mxCell id="29" value="" style="endArrow=classic;html=1;" edge="1" parent="1">
                    <mxGeometry width="50" height="50" relative="1" as="geometry">
                        <mxPoint x="681" y="142.5" as="sourcePoint"/>
                        <mxPoint x="731" y="142.5" as="targetPoint"/>
                    </mxGeometry>
                </mxCell>
                <mxCell id="31" value="&lt;span&gt;Casted&amp;nbsp;&lt;/span&gt;&lt;br&gt;&lt;span&gt;Object&lt;/span&gt;" style="rounded=0;whiteSpace=wrap;html=1;strokeColor=#FFFFFF;" vertex="1" parent="1">
                    <mxGeometry x="740" y="97" width="70" height="90" as="geometry"/>
                </mxCell>
                <mxCell id="32" value="" style="group" vertex="1" connectable="0" parent="1">
                    <mxGeometry x="363" y="75" width="308" height="140" as="geometry"/>
                </mxCell>
                <mxCell id="30" value="" style="shape=process;whiteSpace=wrap;html=1;backgroundOutline=1;strokeColor=#FFFFFF;" vertex="1" parent="32">
                    <mxGeometry width="308" height="140" as="geometry"/>
                </mxCell>
                <mxCell id="11" value="&lt;b&gt;Parsing&lt;/b&gt;" style="rounded=0;whiteSpace=wrap;html=1;strokeColor=#FFFFFF;rotation=-90;" vertex="1" parent="32">
                    <mxGeometry x="104" y="54" width="100" height="30" as="geometry"/>
                </mxCell>
                <mxCell id="12" value="&lt;b&gt;Validation&lt;/b&gt;" style="rounded=0;whiteSpace=wrap;html=1;strokeColor=#FFFFFF;rotation=-90;" vertex="1" parent="32">
                    <mxGeometry x="150" y="54" width="100" height="30" as="geometry"/>
                </mxCell>
                <mxCell id="14" value="&lt;b&gt;Transformation&lt;/b&gt;" style="rounded=0;whiteSpace=wrap;html=1;strokeColor=#FFFFFF;rotation=-90;" vertex="1" parent="32">
                    <mxGeometry x="196" y="54" width="100" height="30" as="geometry"/>
                </mxCell>
                <mxCell id="16" value="&lt;b&gt;Requiered Evaluation&lt;/b&gt;" style="rounded=0;whiteSpace=wrap;html=1;strokeColor=#FFFFFF;rotation=-90;" vertex="1" parent="32">
                    <mxGeometry x="12" y="54" width="100" height="30" as="geometry"/>
                </mxCell>
                <mxCell id="17" value="&lt;b&gt;Defaulting&lt;/b&gt;" style="rounded=0;whiteSpace=wrap;html=1;strokeColor=#FFFFFF;rotation=-90;" vertex="1" parent="32">
                    <mxGeometry x="58" y="54" width="100" height="30" as="geometry"/>
                </mxCell>
                <mxCell id="33" value="&lt;font color=&quot;#b3b3b3&quot;&gt;process each&amp;nbsp;&lt;br style=&quot;font-size: 12px&quot;&gt;attribute&amp;nbsp;&lt;/font&gt;" style="text;html=1;align=center;verticalAlign=middle;resizable=0;points=[];autosize=1;fontSize=12;rotation=270;" vertex="1" parent="32">
                    <mxGeometry x="-30" y="55" width="90" height="30" as="geometry"/>
                </mxCell>
                <mxCell id="34" value="" style="endArrow=classic;html=1;fontSize=12;" edge="1" parent="1">
                    <mxGeometry width="50" height="50" relative="1" as="geometry">
                        <mxPoint x="704" y="143" as="sourcePoint"/>
                        <mxPoint x="704" y="230" as="targetPoint"/>
                    </mxGeometry>
                </mxCell>
                <mxCell id="36" value="Casting &lt;br&gt;Error" style="shape=parallelogram;perimeter=parallelogramPerimeter;whiteSpace=wrap;html=1;strokeColor=#FFFFFF;strokeWidth=1;fontSize=12;" vertex="1" parent="1">
                    <mxGeometry x="660" y="240" width="80" height="50" as="geometry"/>
                </mxCell>
            </root>
        </mxGraphModel>
    </diagram>
</mxfile>